<svg width="98" height="98" viewBox="20 20 58 42" fill="none" xmlns="http://www.w3.org/2000/svg">
  <path d="M45.9875 42.7428C43.4402 39.7829 39.5044 38.4954 35.7748 37.3408C35.7748 37.3408 38.1482 38.5689 39.2523 39.3248C39.0555 39.2378 38.8628 39.1508 38.666 39.0681C36.4118 38.0968 34.084 37.2768 31.949 36.0717C26.7213 33.1347 22.8725 27.8657 21.6493 22.001C21.0674 25.332 21.5439 28.837 22.9963 31.8886C24.4486 34.9401 26.8678 37.5241 29.8185 39.1689C31.9627 40.3648 34.3408 41.0659 36.6499 41.9042C38.9593 42.7474 41.2638 43.769 43.0324 45.4781C44.801 47.1824 45.951 49.6934 45.4837 52.108C45.4056 49.7437 43.967 47.1184 42.1297 45.6292C40.2925 44.1401 37.878 43.6179 35.6329 42.8574C33.3924 42.1012 31.303 41.524 29.1955 40.4472C25.6262 38.6238 22.2036 35.7968 21.049 31.9299C20.852 37.1208 24.2746 42.2526 29.1404 44.0668C33.0716 45.5284 37.7588 45.6706 41.2868 48.1859C43.1286 49.4964 43.9578 51.2739 44.0037 53.5328C44.0494 55.7916 43.037 58.0505 41.3233 59.5212C44.5764 58.4537 47.2201 55.6816 48.1409 52.3828C49.0574 49.0748 48.2236 45.3406 45.9875 42.7428Z" fill="#111827"/>
  <path d="M34.2445 46.5732C24.6273 45.3176 23.3354 41.8126 23.3354 41.8126C23.931 47.7597 27.5001 48.0256 35.5685 49.148C37.8274 49.4642 39.3944 50.1056 40.4757 50.8663C39.1517 50.0918 37.2409 49.6061 34.6888 49.5559C27.1474 49.4091 25.2229 46.7519 25.2229 46.7519C26.3226 51.5901 29.2871 51.4436 36.045 51.5444C42.7986 51.6452 42.6886 56.0803 42.6886 56.0803C42.7848 55.6678 45.589 48.0529 34.2445 46.5732Z" fill="#111827"/>
  <path d="M51.0276 42.7428C53.5751 39.7829 57.5106 38.4954 61.2402 37.3408C61.2402 37.3408 58.8668 38.5689 57.7628 39.3248C57.9598 39.2378 58.1522 39.1508 58.3492 39.0681C60.6035 38.0968 62.931 37.2768 65.0661 36.0717C70.2938 33.1347 74.1425 27.8657 75.3658 22.001C75.9476 25.332 75.4712 28.837 74.0188 31.8886C72.5664 34.9401 70.1473 37.5241 67.1965 39.1689C65.0523 40.3648 62.6743 41.0658 60.3651 41.9042C58.056 42.7474 55.7512 43.769 53.9826 45.4781C52.2143 47.1824 51.0641 49.6934 51.5316 52.1079C51.6094 49.7437 53.048 47.1184 54.8853 45.6292C56.7225 44.1401 59.1373 43.6179 61.3824 42.8574C63.6229 42.1012 65.712 41.5239 67.8198 40.4472C71.3843 38.6284 74.8069 35.8014 75.9614 31.9345C76.1584 37.1254 72.7358 42.2572 67.8654 44.0714C63.9342 45.533 59.2471 45.6752 55.7193 48.1905C53.8775 49.501 53.048 51.2785 53.0024 53.5374C52.9564 55.7962 53.9691 58.0551 55.6826 59.5258C52.4294 58.4583 49.7857 55.6862 48.8649 52.3874C47.9577 49.0748 48.7917 45.3406 51.0276 42.7428Z" fill="#111827"/>
  <path d="M62.7705 46.5732C72.3877 45.3176 73.6799 41.8126 73.6799 41.8126C73.0842 47.7643 69.5149 48.0256 61.451 49.1526C59.1922 49.4688 57.6252 50.1102 56.5439 50.8707C57.8682 50.0964 59.7787 49.6107 62.3307 49.5604C69.8724 49.4137 71.7967 46.7565 71.7967 46.7565C70.697 51.5947 67.7327 51.4482 60.9746 51.549C54.221 51.6496 54.331 56.0848 54.331 56.0848C54.2302 55.6678 51.4262 48.0529 62.7705 46.5732Z" fill="#111827"/>
  <path d="M61.4079 36.0934C61.8461 36.5318 62.0654 37.0496 62.0654 37.6471V58.9764C62.0654 59.2152 61.9755 59.4245 61.7959 59.6042C61.6167 59.7833 61.4079 59.8726 61.1691 59.8726H57.1654C56.9265 59.8726 56.7172 59.7833 56.5375 59.6042C56.3584 59.4245 56.2691 59.2152 56.2691 58.9764V50.0747H40.7953V58.9764C40.7953 59.2152 40.7054 59.4245 40.5258 59.6042C40.3466 59.7833 40.1379 59.8726 39.899 59.8726H35.8963C35.6574 59.8726 35.4481 59.7833 35.2685 59.6042C35.0893 59.4245 35 59.2152 35 58.9764V37.6471C35 37.0496 35.219 36.5318 35.6574 36.0934L40.9147 30.7166C41.3925 30.2389 41.9899 30 42.7073 30H54.3581C55.0747 30 55.6719 30.2389 56.1496 30.7166L61.4079 36.0934ZM40.7953 44.8766H56.2691V39.2008C56.2691 38.8021 56.1297 38.4635 55.8515 38.185L53.9395 36.3925L53.5812 36.0934C53.422 35.9744 53.2224 35.9147 52.983 35.9147H44.0813C43.8021 35.9147 43.6031 35.9744 43.4841 36.0934L43.1248 36.3925L41.2138 38.185C40.9346 38.4635 40.7953 38.8021 40.7953 39.2008V44.8766Z" fill="#111827"/>
</svg>
