<svg width="64" height="64" viewBox="0 0 64 64" fill="none" xmlns="http://www.w3.org/2000/svg">
  <rect width="64" height="64" rx="16" fill="url(#bg)" />
  <circle cx="32" cy="31" r="18" stroke="white" stroke-opacity="0.18" stroke-width="2" />
  <path
    d="M25.2 44V26.4C25.2 25.45 25.57 24.63 26.31 23.95C27.06 23.26 27.95 22.92 28.99 22.92H35.01C36.05 22.92 36.94 23.26 37.69 23.95C38.43 24.63 38.8 25.45 38.8 26.4V44H35.55V36.93H28.45V44H25.2ZM28.45 33.8H35.55V27.89C35.55 27.49 35.42 27.15 35.16 26.87C34.91 26.58 34.58 26.44 34.18 26.44H29.82C29.42 26.44 29.09 26.58 28.84 26.87C28.58 27.15 28.45 27.49 28.45 27.89V33.8Z"
    fill="white"
  />
  <defs>
    <linearGradient id="bg" x1="6" y1="5" x2="56" y2="58" gradientUnits="userSpaceOnUse">
      <stop stop-color="#5E17EB" />
      <stop offset="0.55" stop-color="#26143F" />
      <stop offset="1" stop-color="#0C0B12" />
    </linearGradient>
  </defs>
</svg>
