<svg width="64" height="64" viewBox="0 0 64 64" fill="none" xmlns="http://www.w3.org/2000/svg">
  <rect width="64" height="64" rx="14" fill="url(#bg)"/>
  <rect x="6" y="6" width="52" height="52" rx="12" stroke="white" stroke-opacity="0.14" stroke-width="1.5"/>
  <circle cx="32" cy="31" r="16" stroke="white" stroke-opacity="0.20" stroke-width="1.5"/>

  <path d="M21.5 26.8C18.7 27.9 16.7 29.9 15.5 32.8C19.2 31.7 22.4 32.1 25.1 34.1C23.8 31.2 22.6 28.8 21.5 26.8Z" fill="#7B36FF"/>
  <path d="M42.5 26.8C45.3 27.9 47.3 29.9 48.5 32.8C44.8 31.7 41.6 32.1 38.9 34.1C40.2 31.2 41.4 28.8 42.5 26.8Z" fill="#7B36FF"/>

  <path d="M26.7 42V24.8C26.7 23.9 27.1 23.1 27.7 22.5C28.4 21.9 29.2 21.6 30.1 21.6H33.9C34.8 21.6 35.6 21.9 36.3 22.5C36.9 23.1 37.3 23.9 37.3 24.8V42H33.6V35.3H30.4V42H26.7ZM30.4 31.9H33.6V26.3C33.6 25.9 33.5 25.6 33.2 25.3C33 25 32.6 24.9 32.2 24.9H31.8C31.4 24.9 31 25 30.8 25.3C30.5 25.6 30.4 25.9 30.4 26.3V31.9Z" fill="#F6F0FF"/>

  <defs>
    <linearGradient id="bg" x1="7" y1="5" x2="56" y2="59" gradientUnits="userSpaceOnUse">
      <stop stop-color="#5E17EB"/>
      <stop offset="0.58" stop-color="#231238"/>
      <stop offset="1" stop-color="#0B0A12"/>
    </linearGradient>
  </defs>
</svg>
